<svg width="53" height="139" viewBox="0 0 53 139" fill="none" xmlns="http://www.w3.org/2000/svg">
<path d="M9.43638 4.336C9.96438 4.336 10.3964 4.416 10.7324 4.576C11.0764 4.728 11.3804 4.908 11.6444 5.116C11.8044 5.236 11.9244 5.252 12.0044 5.164C12.0924 5.068 12.1524 4.848 12.1844 4.504H12.4604C12.4444 4.8 12.4324 5.16 12.4244 5.584C12.4164 6.008 12.4124 6.568 12.4124 7.264H12.1364C12.0804 6.92 12.0284 6.648 11.9804 6.448C11.9324 6.24 11.8724 6.064 11.8004 5.92C11.7364 5.776 11.6484 5.632 11.5364 5.488C11.2884 5.16 10.9764 4.924 10.6004 4.78C10.2244 4.628 9.82838 4.552 9.41238 4.552C9.02038 4.552 8.66438 4.652 8.34438 4.852C8.03238 5.044 7.76038 5.324 7.52838 5.692C7.30438 6.06 7.12838 6.504 7.00038 7.024C6.88038 7.544 6.82038 8.128 6.82038 8.776C6.82038 9.448 6.88838 10.044 7.02438 10.564C7.16038 11.076 7.34838 11.508 7.58838 11.86C7.83638 12.212 8.12438 12.48 8.45238 12.664C8.78838 12.84 9.14838 12.928 9.53238 12.928C9.89238 12.928 10.2684 12.856 10.6604 12.712C11.0524 12.568 11.3604 12.336 11.5844 12.016C11.7604 11.784 11.8804 11.532 11.9444 11.26C12.0164 10.988 12.0804 10.608 12.1364 10.12H12.4124C12.4124 10.848 12.4164 11.436 12.4244 11.884C12.4324 12.324 12.4444 12.696 12.4604 13H12.1844C12.1524 12.656 12.0964 12.44 12.0164 12.352C11.9444 12.264 11.8204 12.276 11.6444 12.388C11.3484 12.596 11.0324 12.78 10.6964 12.94C10.3684 13.092 9.94438 13.168 9.42438 13.168C8.66438 13.168 7.99638 12.996 7.42038 12.652C6.85238 12.308 6.40838 11.812 6.08838 11.164C5.77638 10.516 5.62038 9.736 5.62038 8.824C5.62038 7.928 5.78438 7.144 6.11238 6.472C6.44038 5.8 6.88838 5.276 7.45638 4.9C8.03238 4.524 8.69238 4.336 9.43638 4.336ZM16.5341 6.652C17.0461 6.652 17.5061 6.764 17.9141 6.988C18.3221 7.212 18.6461 7.564 18.8861 8.044C19.1341 8.524 19.2581 9.148 19.2581 9.916C19.2581 10.684 19.1341 11.308 18.8861 11.788C18.6461 12.26 18.3221 12.608 17.9141 12.832C17.5061 13.056 17.0461 13.168 16.5341 13.168C16.0301 13.168 15.5701 13.056 15.1541 12.832C14.7461 12.608 14.4181 12.26 14.1701 11.788C13.9301 11.308 13.8101 10.684 13.8101 9.916C13.8101 9.148 13.9301 8.524 14.1701 8.044C14.4181 7.564 14.7461 7.212 15.1541 6.988C15.5701 6.764 16.0301 6.652 16.5341 6.652ZM16.5341 6.892C16.0781 6.892 15.7021 7.128 15.4061 7.6C15.1181 8.072 14.9741 8.844 14.9741 9.916C14.9741 10.988 15.1181 11.76 15.4061 12.232C15.7021 12.696 16.0781 12.928 16.5341 12.928C16.9901 12.928 17.3621 12.696 17.6501 12.232C17.9461 11.76 18.0941 10.988 18.0941 9.916C18.0941 8.844 17.9461 8.072 17.6501 7.6C17.3621 7.128 16.9901 6.892 16.5341 6.892ZM24.2003 6.652C24.5043 6.652 24.7563 6.692 24.9563 6.772C25.1643 6.852 25.3363 6.964 25.4723 7.108C25.6243 7.268 25.7323 7.468 25.7963 7.708C25.8603 7.948 25.8923 8.272 25.8923 8.68V11.884C25.8923 12.22 25.9603 12.448 26.0963 12.568C26.2403 12.688 26.4763 12.748 26.8043 12.748V13C26.6683 12.992 26.4603 12.984 26.1803 12.976C25.9003 12.96 25.6283 12.952 25.3643 12.952C25.1003 12.952 24.8403 12.96 24.5843 12.976C24.3363 12.984 24.1483 12.992 24.0203 13V12.748C24.3083 12.748 24.5123 12.688 24.6323 12.568C24.7523 12.448 24.8123 12.22 24.8123 11.884V8.416C24.8123 8.168 24.7923 7.94 24.7523 7.732C24.7123 7.524 24.6203 7.356 24.4763 7.228C24.3403 7.1 24.1283 7.036 23.8403 7.036C23.5043 7.036 23.2083 7.132 22.9523 7.324C22.7043 7.516 22.5083 7.78 22.3643 8.116C22.2283 8.444 22.1603 8.812 22.1603 9.22V11.884C22.1603 12.22 22.2203 12.448 22.3403 12.568C22.4603 12.688 22.6643 12.748 22.9523 12.748V13C22.8243 12.992 22.6323 12.984 22.3763 12.976C22.1283 12.96 21.8723 12.952 21.6083 12.952C21.3443 12.952 21.0723 12.96 20.7923 12.976C20.5123 12.984 20.3043 12.992 20.1683 13V12.748C20.4963 12.748 20.7283 12.688 20.8643 12.568C21.0083 12.448 21.0803 12.22 21.0803 11.884V8.128C21.0803 7.768 21.0163 7.504 20.8883 7.336C20.7603 7.16 20.5203 7.072 20.1683 7.072V6.82C20.4243 6.844 20.6723 6.856 20.9123 6.856C21.1443 6.856 21.3643 6.844 21.5723 6.82C21.7883 6.788 21.9843 6.744 22.1603 6.688V8.104C22.3683 7.56 22.6563 7.184 23.0243 6.976C23.4003 6.76 23.7923 6.652 24.2003 6.652ZM29.2605 4.828V6.832H31.0365V7.072H29.2605V11.716C29.2605 12.092 29.3285 12.356 29.4645 12.508C29.6005 12.66 29.7885 12.736 30.0285 12.736C30.2685 12.736 30.4765 12.64 30.6525 12.448C30.8285 12.248 30.9805 11.916 31.1085 11.452L31.3485 11.512C31.2685 11.976 31.1085 12.368 30.8685 12.688C30.6365 13.008 30.2765 13.168 29.7885 13.168C29.5165 13.168 29.2925 13.132 29.1165 13.06C28.9405 12.996 28.7845 12.9 28.6485 12.772C28.4725 12.588 28.3485 12.368 28.2765 12.112C28.2125 11.856 28.1805 11.516 28.1805 11.092V7.072H27.0285V6.832H28.1805V4.996C28.3805 4.988 28.5725 4.972 28.7565 4.948C28.9405 4.924 29.1085 4.884 29.2605 4.828ZM33.2747 13.084C32.9467 13.084 32.6627 13.024 32.4227 12.904C32.1827 12.776 31.9987 12.6 31.8707 12.376C31.7507 12.152 31.6907 11.892 31.6907 11.596C31.6907 11.244 31.7707 10.956 31.9307 10.732C32.0987 10.508 32.3107 10.328 32.5667 10.192C32.8227 10.056 33.0907 9.944 33.3707 9.856C33.6587 9.76 33.9307 9.672 34.1867 9.592C34.4427 9.504 34.6507 9.404 34.8107 9.292C34.9787 9.18 35.0627 9.032 35.0627 8.848V8.104C35.0627 7.768 35.0107 7.512 34.9067 7.336C34.8107 7.16 34.6787 7.044 34.5107 6.988C34.3427 6.924 34.1547 6.892 33.9467 6.892C33.7467 6.892 33.5307 6.92 33.2987 6.976C33.0747 7.032 32.8947 7.148 32.7587 7.324C32.9107 7.356 33.0427 7.436 33.1547 7.564C33.2667 7.692 33.3227 7.856 33.3227 8.056C33.3227 8.256 33.2587 8.416 33.1307 8.536C33.0027 8.648 32.8387 8.704 32.6387 8.704C32.4067 8.704 32.2347 8.632 32.1227 8.488C32.0187 8.336 31.9667 8.168 31.9667 7.984C31.9667 7.776 32.0187 7.608 32.1227 7.48C32.2267 7.352 32.3587 7.232 32.5187 7.12C32.7027 6.992 32.9387 6.884 33.2267 6.796C33.5227 6.7 33.8547 6.652 34.2227 6.652C34.5507 6.652 34.8307 6.692 35.0627 6.772C35.2947 6.844 35.4867 6.952 35.6387 7.096C35.8467 7.288 35.9827 7.524 36.0467 7.804C36.1107 8.076 36.1427 8.404 36.1427 8.788V12.124C36.1427 12.324 36.1707 12.468 36.2267 12.556C36.2907 12.644 36.3867 12.688 36.5147 12.688C36.6027 12.688 36.6867 12.668 36.7667 12.628C36.8467 12.588 36.9427 12.524 37.0547 12.436L37.1867 12.64C37.0187 12.768 36.8587 12.876 36.7067 12.964C36.5547 13.044 36.3507 13.084 36.0947 13.084C35.8627 13.084 35.6707 13.044 35.5187 12.964C35.3667 12.884 35.2507 12.768 35.1707 12.616C35.0987 12.456 35.0627 12.256 35.0627 12.016C34.8467 12.376 34.5867 12.644 34.2827 12.82C33.9867 12.996 33.6507 13.084 33.2747 13.084ZM33.7067 12.604C33.9707 12.604 34.2147 12.528 34.4387 12.376C34.6707 12.224 34.8787 11.996 35.0627 11.692V9.34C34.9667 9.476 34.8267 9.592 34.6427 9.688C34.4587 9.776 34.2587 9.868 34.0427 9.964C33.8267 10.052 33.6187 10.16 33.4187 10.288C33.2267 10.408 33.0667 10.568 32.9387 10.768C32.8107 10.968 32.7467 11.228 32.7467 11.548C32.7467 11.868 32.8307 12.124 32.9987 12.316C33.1747 12.508 33.4107 12.604 33.7067 12.604ZM39.4792 4.828V6.832H41.2552V7.072H39.4792V11.716C39.4792 12.092 39.5472 12.356 39.6832 12.508C39.8192 12.66 40.0072 12.736 40.2472 12.736C40.4872 12.736 40.6952 12.64 40.8712 12.448C41.0472 12.248 41.1992 11.916 41.3272 11.452L41.5672 11.512C41.4872 11.976 41.3272 12.368 41.0872 12.688C40.8552 13.008 40.4952 13.168 40.0072 13.168C39.7352 13.168 39.5112 13.132 39.3352 13.06C39.1592 12.996 39.0032 12.9 38.8672 12.772C38.6912 12.588 38.5672 12.368 38.4952 12.112C38.4312 11.856 38.3992 11.516 38.3992 11.092V7.072H37.2472V6.832H38.3992V4.996C38.5992 4.988 38.7912 4.972 38.9752 4.948C39.1592 4.924 39.3272 4.884 39.4792 4.828ZM44.7294 6.652C45.2414 6.652 45.7014 6.764 46.1094 6.988C46.5174 7.212 46.8414 7.564 47.0814 8.044C47.3294 8.524 47.4534 9.148 47.4534 9.916C47.4534 10.684 47.3294 11.308 47.0814 11.788C46.8414 12.26 46.5174 12.608 46.1094 12.832C45.7014 13.056 45.2414 13.168 44.7294 13.168C44.2254 13.168 43.7654 13.056 43.3494 12.832C42.9414 12.608 42.6134 12.26 42.3654 11.788C42.1254 11.308 42.0054 10.684 42.0054 9.916C42.0054 9.148 42.1254 8.524 42.3654 8.044C42.6134 7.564 42.9414 7.212 43.3494 6.988C43.7654 6.764 44.2254 6.652 44.7294 6.652ZM44.7294 6.892C44.2734 6.892 43.8974 7.128 43.6014 7.6C43.3134 8.072 43.1694 8.844 43.1694 9.916C43.1694 10.988 43.3134 11.76 43.6014 12.232C43.8974 12.696 44.2734 12.928 44.7294 12.928C45.1854 12.928 45.5574 12.696 45.8454 12.232C46.1414 11.76 46.2894 10.988 46.2894 9.916C46.2894 8.844 46.1414 8.072 45.8454 7.6C45.5574 7.128 45.1854 6.892 44.7294 6.892Z" fill="white"/>
<rect x="27" y="31" width="1" height="108" fill="white"/>
</svg>
