<svg width="30" height="129" viewBox="0 0 30 129" fill="none" xmlns="http://www.w3.org/2000/svg">
<g filter="url(#filter0_d_49_43)">
<rect x="4" y="121" width="121" height="22" rx="11" transform="rotate(-90 4 121)" fill="white"/>
</g>
<path d="M12.78 77.0048C12.78 76.5648 12.8467 76.2048 12.98 75.9248C13.1067 75.6382 13.2567 75.3848 13.43 75.1648C13.53 75.0315 13.5433 74.9315 13.47 74.8648C13.39 74.7915 13.2067 74.7415 12.92 74.7148V74.4848C13.1667 74.4982 13.4667 74.5082 13.82 74.5148C14.1733 74.5215 14.64 74.5248 15.22 74.5248V74.7548C14.9333 74.8015 14.7067 74.8448 14.54 74.8848C14.3667 74.9248 14.22 74.9748 14.1 75.0348C13.98 75.0882 13.86 75.1615 13.74 75.2548C13.4667 75.4615 13.27 75.7215 13.15 76.0348C13.0233 76.3482 12.96 76.6782 12.96 77.0248C12.96 77.3515 13.0433 77.6482 13.21 77.9148C13.37 78.1748 13.6033 78.4015 13.91 78.5948C14.2167 78.7815 14.5867 78.9282 15.02 79.0348C15.4533 79.1348 15.94 79.1848 16.48 79.1848C17.04 79.1848 17.5367 79.1282 17.97 79.0148C18.3967 78.9015 18.7567 78.7448 19.05 78.5448C19.3433 78.3382 19.5667 78.0982 19.72 77.8248C19.8667 77.5448 19.94 77.2448 19.94 76.9248C19.94 76.6248 19.88 76.3115 19.76 75.9848C19.64 75.6582 19.4467 75.4015 19.18 75.2148C18.9867 75.0682 18.7767 74.9682 18.55 74.9148C18.3233 74.8548 18.0067 74.8015 17.6 74.7548V74.5248C18.2067 74.5248 18.6967 74.5215 19.07 74.5148C19.4367 74.5082 19.7467 74.4982 20 74.4848V74.7148C19.7133 74.7415 19.5333 74.7882 19.46 74.8548C19.3867 74.9148 19.3967 75.0182 19.49 75.1648C19.6633 75.4115 19.8167 75.6748 19.95 75.9548C20.0767 76.2282 20.14 76.5815 20.14 77.0148C20.14 77.6482 19.9967 78.2048 19.71 78.6848C19.4233 79.1582 19.01 79.5282 18.47 79.7948C17.93 80.0548 17.28 80.1848 16.52 80.1848C15.7733 80.1848 15.12 80.0482 14.56 79.7748C14 79.5015 13.5633 79.1282 13.25 78.6548C12.9367 78.1748 12.78 77.6248 12.78 77.0048ZM14.71 71.0901C14.71 70.6634 14.8033 70.2801 14.99 69.9401C15.1767 69.6001 15.47 69.3301 15.87 69.1301C16.27 68.9234 16.79 68.8201 17.43 68.8201C18.07 68.8201 18.59 68.9234 18.99 69.1301C19.3833 69.3301 19.6733 69.6001 19.86 69.9401C20.0467 70.2801 20.14 70.6634 20.14 71.0901C20.14 71.5101 20.0467 71.8934 19.86 72.2401C19.6733 72.5801 19.3833 72.8534 18.99 73.0601C18.59 73.2601 18.07 73.3601 17.43 73.3601C16.79 73.3601 16.27 73.2601 15.87 73.0601C15.47 72.8534 15.1767 72.5801 14.99 72.2401C14.8033 71.8934 14.71 71.5101 14.71 71.0901ZM14.91 71.0901C14.91 71.4701 15.1067 71.7834 15.5 72.0301C15.8933 72.2701 16.5367 72.3901 17.43 72.3901C18.3233 72.3901 18.9667 72.2701 19.36 72.0301C19.7467 71.7834 19.94 71.4701 19.94 71.0901C19.94 70.7101 19.7467 70.4001 19.36 70.1601C18.9667 69.9134 18.3233 69.7901 17.43 69.7901C16.5367 69.7901 15.8933 69.9134 15.5 70.1601C15.1067 70.4001 14.91 70.7101 14.91 71.0901ZM14.71 64.7016C14.71 64.4482 14.7433 64.2382 14.81 64.0716C14.8767 63.8982 14.97 63.7549 15.09 63.6416C15.2233 63.5149 15.39 63.4249 15.59 63.3716C15.79 63.3182 16.06 63.2916 16.4 63.2916H19.07C19.35 63.2916 19.54 63.2349 19.64 63.1216C19.74 63.0016 19.79 62.8049 19.79 62.5316H20C19.9933 62.6449 19.9867 62.8182 19.98 63.0516C19.9667 63.2849 19.96 63.5116 19.96 63.7316C19.96 63.9516 19.9667 64.1682 19.98 64.3816C19.9867 64.5882 19.9933 64.7449 20 64.8516H19.79C19.79 64.6116 19.74 64.4416 19.64 64.3416C19.54 64.2416 19.35 64.1916 19.07 64.1916H16.18C15.9733 64.1916 15.7833 64.2082 15.61 64.2416C15.4367 64.2749 15.2967 64.3516 15.19 64.4716C15.0833 64.5849 15.03 64.7616 15.03 65.0016C15.03 65.2816 15.11 65.5282 15.27 65.7416C15.43 65.9482 15.65 66.1116 15.93 66.2316C16.2033 66.3449 16.51 66.4016 16.85 66.4016H19.07C19.35 66.4016 19.54 66.3516 19.64 66.2516C19.74 66.1516 19.79 65.9816 19.79 65.7416H20C19.9933 65.8482 19.9867 66.0082 19.98 66.2216C19.9667 66.4282 19.96 66.6416 19.96 66.8616C19.96 67.0816 19.9667 67.3082 19.98 67.5416C19.9867 67.7749 19.9933 67.9482 20 68.0616H19.79C19.79 67.7882 19.74 67.5949 19.64 67.4816C19.54 67.3616 19.35 67.3016 19.07 67.3016H15.94C15.64 67.3016 15.42 67.3549 15.28 67.4616C15.1333 67.5682 15.06 67.7682 15.06 68.0616H14.85C14.87 67.8482 14.88 67.6416 14.88 67.4416C14.88 67.2482 14.87 67.0649 14.85 66.8916C14.8233 66.7116 14.7867 66.5482 14.74 66.4016H15.92C15.4667 66.2282 15.1533 65.9882 14.98 65.6816C14.8 65.3682 14.71 65.0416 14.71 64.7016ZM12.18 59.6248C12.18 59.4381 12.2067 59.2748 12.26 59.1348C12.3067 58.9881 12.37 58.8614 12.45 58.7548C12.53 58.6548 12.6233 58.5781 12.73 58.5248C12.8367 58.4714 12.95 58.4448 13.07 58.4448C13.2233 58.4448 13.35 58.4948 13.45 58.5948C13.55 58.6948 13.6 58.8214 13.6 58.9748C13.6 59.1214 13.5533 59.2514 13.46 59.3648C13.36 59.4714 13.2267 59.5248 13.06 59.5248C12.92 59.5248 12.8067 59.4881 12.72 59.4148C12.6333 59.3348 12.5767 59.2314 12.55 59.1048C12.49 59.1248 12.44 59.1781 12.4 59.2648C12.3533 59.3448 12.33 59.4548 12.33 59.5948C12.33 59.7481 12.3633 59.8814 12.43 59.9948C12.4967 60.1014 12.5867 60.1848 12.7 60.2448C12.84 60.3248 13.05 60.3748 13.33 60.3948C13.6033 60.4148 14.0267 60.4248 14.6 60.4248H14.86V59.3548H15.06V60.4248H18.97C19.2967 60.4248 19.5167 60.3314 19.63 60.1448C19.7367 59.9514 19.79 59.6914 19.79 59.3648H20C19.9933 59.5181 19.9867 59.7348 19.98 60.0148C19.9667 60.2948 19.96 60.5914 19.96 60.9048C19.96 61.1314 19.9667 61.3581 19.98 61.5848C19.9867 61.8048 19.9933 61.9714 20 62.0848H19.79C19.79 61.8114 19.74 61.6181 19.64 61.5048C19.54 61.3848 19.35 61.3248 19.07 61.3248H15.06V62.1248H14.86V61.3248C14.4667 61.3248 14.1367 61.3081 13.87 61.2748C13.6033 61.2414 13.3767 61.1881 13.19 61.1148C12.9967 61.0414 12.8267 60.9414 12.68 60.8148C12.5267 60.6814 12.4067 60.5114 12.32 60.3048C12.2267 60.0981 12.18 59.8714 12.18 59.6248ZM14.71 56.4905C14.71 56.0638 14.8033 55.6805 14.99 55.3405C15.1767 55.0005 15.47 54.7305 15.87 54.5305C16.27 54.3238 16.79 54.2205 17.43 54.2205C18.07 54.2205 18.59 54.3238 18.99 54.5305C19.3833 54.7305 19.6733 55.0005 19.86 55.3405C20.0467 55.6805 20.14 56.0638 20.14 56.4905C20.14 56.9105 20.0467 57.2938 19.86 57.6405C19.6733 57.9805 19.3833 58.2538 18.99 58.4605C18.59 58.6605 18.07 58.7605 17.43 58.7605C16.79 58.7605 16.27 58.6605 15.87 58.4605C15.47 58.2538 15.1767 57.9805 14.99 57.6405C14.8033 57.2938 14.71 56.9105 14.71 56.4905ZM14.91 56.4905C14.91 56.8705 15.1067 57.1838 15.5 57.4305C15.8933 57.6705 16.5367 57.7905 17.43 57.7905C18.3233 57.7905 18.9667 57.6705 19.36 57.4305C19.7467 57.1838 19.94 56.8705 19.94 56.4905C19.94 56.1105 19.7467 55.8005 19.36 55.5605C18.9667 55.3138 18.3233 55.1905 17.43 55.1905C16.5367 55.1905 15.8933 55.3138 15.5 55.5605C15.1067 55.8005 14.91 56.1105 14.91 56.4905ZM14.71 50.352C14.71 50.172 14.7467 50.0153 14.82 49.882C14.8933 49.742 14.99 49.6353 15.11 49.562C15.2233 49.482 15.3533 49.442 15.5 49.442C15.6667 49.442 15.8133 49.4953 15.94 49.602C16.0667 49.702 16.13 49.8386 16.13 50.012C16.13 50.152 16.0867 50.2753 16 50.382C15.9067 50.4886 15.7767 50.542 15.61 50.542C15.4833 50.542 15.3767 50.5086 15.29 50.442C15.1967 50.3686 15.1233 50.2886 15.07 50.202C15.0033 50.2486 14.97 50.3186 14.97 50.412C14.97 50.6186 15.0333 50.8086 15.16 50.982C15.28 51.1553 15.4367 51.302 15.63 51.422C15.8233 51.542 16.03 51.6353 16.25 51.702C16.4633 51.7686 16.6633 51.802 16.85 51.802H18.97C19.2967 51.802 19.5167 51.7086 19.63 51.522C19.7367 51.3286 19.79 51.0686 19.79 50.742H20C19.9933 50.8953 19.9867 51.112 19.98 51.392C19.9667 51.672 19.96 51.9686 19.96 52.282C19.96 52.5086 19.9667 52.7353 19.98 52.962C19.9867 53.182 19.9933 53.3486 20 53.462H19.79C19.79 53.1886 19.74 52.9953 19.64 52.882C19.54 52.762 19.35 52.702 19.07 52.702H15.94C15.64 52.702 15.42 52.7553 15.28 52.862C15.1333 52.9686 15.06 53.1686 15.06 53.462H14.85C14.87 53.2486 14.88 53.042 14.88 52.842C14.88 52.6486 14.87 52.4653 14.85 52.292C14.8233 52.112 14.7867 51.9486 14.74 51.802H15.99C15.7967 51.7286 15.6033 51.6253 15.41 51.492C15.21 51.352 15.0433 51.1853 14.91 50.992C14.7767 50.7986 14.71 50.5853 14.71 50.352ZM13.19 47.3988H14.86V45.9188H15.06V47.3988H18.93C19.2433 47.3988 19.4633 47.3422 19.59 47.2288C19.7167 47.1155 19.78 46.9588 19.78 46.7588C19.78 46.5588 19.7 46.3855 19.54 46.2388C19.3733 46.0922 19.0967 45.9655 18.71 45.8588L18.76 45.6588C19.1467 45.7255 19.4733 45.8588 19.74 46.0588C20.0067 46.2522 20.14 46.5522 20.14 46.9588C20.14 47.1855 20.11 47.3722 20.05 47.5188C19.9967 47.6655 19.9167 47.7955 19.81 47.9088C19.6567 48.0555 19.4733 48.1588 19.26 48.2188C19.0467 48.2722 18.7633 48.2988 18.41 48.2988H15.06V49.2588H14.86V48.2988H13.33C13.3233 48.1322 13.31 47.9722 13.29 47.8188C13.27 47.6655 13.2367 47.5255 13.19 47.3988ZM14.71 43.0237C14.71 42.597 14.8033 42.2137 14.99 41.8737C15.1767 41.5337 15.47 41.2637 15.87 41.0637C16.27 40.857 16.79 40.7537 17.43 40.7537C18.07 40.7537 18.59 40.857 18.99 41.0637C19.3833 41.2637 19.6733 41.5337 19.86 41.8737C20.0467 42.2137 20.14 42.597 20.14 43.0237C20.14 43.4437 20.0467 43.827 19.86 44.1737C19.6733 44.5137 19.3833 44.787 18.99 44.9937C18.59 45.1937 18.07 45.2937 17.43 45.2937C16.79 45.2937 16.27 45.1937 15.87 44.9937C15.47 44.787 15.1767 44.5137 14.99 44.1737C14.8033 43.827 14.71 43.4437 14.71 43.0237ZM14.91 43.0237C14.91 43.4037 15.1067 43.717 15.5 43.9637C15.8933 44.2037 16.5367 44.3237 17.43 44.3237C18.3233 44.3237 18.9667 44.2037 19.36 43.9637C19.7467 43.717 19.94 43.4037 19.94 43.0237C19.94 42.6437 19.7467 42.3337 19.36 42.0937C18.9667 41.847 18.3233 41.7237 17.43 41.7237C16.5367 41.7237 15.8933 41.847 15.5 42.0937C15.1067 42.3337 14.91 42.6437 14.91 43.0237Z" fill="black"/>
<defs>
<filter id="filter0_d_49_43" x="0" y="0" width="30" height="129" filterUnits="userSpaceOnUse" color-interpolation-filters="sRGB">
<feFlood flood-opacity="0" result="BackgroundImageFix"/>
<feColorMatrix in="SourceAlpha" type="matrix" values="0 0 0 0 0 0 0 0 0 0 0 0 0 0 0 0 0 0 127 0" result="hardAlpha"/>
<feOffset dy="4"/>
<feGaussianBlur stdDeviation="2"/>
<feComposite in2="hardAlpha" operator="out"/>
<feColorMatrix type="matrix" values="0 0 0 0 0 0 0 0 0 0 0 0 0 0 0 0 0 0 0.25 0"/>
<feBlend mode="normal" in2="BackgroundImageFix" result="effect1_dropShadow_49_43"/>
<feBlend mode="normal" in="SourceGraphic" in2="effect1_dropShadow_49_43" result="shape"/>
</filter>
</defs>
</svg>
