<svg width="169" height="30" viewBox="0 0 169 30" fill="none" xmlns="http://www.w3.org/2000/svg">
<g filter="url(#filter0_d_49_41)">
<rect x="4" width="161" height="22" rx="11" fill="white"/>
</g>
<path d="M76.8763 7.92V8.12C76.6496 8.12667 76.4763 8.15333 76.3563 8.2C76.2429 8.24 76.1663 8.32 76.1263 8.44C76.0863 8.55333 76.0663 8.73333 76.0663 8.98V13.94C76.0663 14.18 76.0863 14.36 76.1263 14.48C76.1663 14.6 76.2429 14.68 76.3563 14.72C76.4763 14.7533 76.6496 14.77 76.8763 14.77H77.6063C77.9196 14.77 78.1729 14.7367 78.3663 14.67C78.5663 14.6033 78.7229 14.5 78.8363 14.36C78.9563 14.2133 79.0463 14.02 79.1063 13.78C79.1663 13.54 79.2129 13.2467 79.2463 12.9H79.4763C79.4563 13.1067 79.4463 13.38 79.4463 13.72C79.4463 13.8467 79.4496 14.03 79.4563 14.27C79.4696 14.5033 79.4896 14.7467 79.5163 15C79.1763 14.9867 78.7929 14.98 78.3663 14.98C77.9396 14.9733 77.5596 14.97 77.2263 14.97C77.0796 14.97 76.8896 14.97 76.6563 14.97C76.4296 14.97 76.1829 14.9733 75.9163 14.98C75.6496 14.98 75.3796 14.9833 75.1063 14.99C74.8329 14.99 74.5729 14.9933 74.3263 15V14.8C74.5529 14.7867 74.7229 14.76 74.8363 14.72C74.9563 14.68 75.0363 14.6 75.0763 14.48C75.1163 14.36 75.1363 14.18 75.1363 13.94V8.98C75.1363 8.73333 75.1163 8.55333 75.0763 8.44C75.0363 8.32 74.9563 8.24 74.8363 8.2C74.7229 8.15333 74.5529 8.12667 74.3263 8.12V7.92C74.4663 7.92667 74.6496 7.93333 74.8763 7.94C75.1029 7.94667 75.3463 7.95 75.6063 7.95C75.8396 7.95 76.0696 7.94667 76.2963 7.94C76.5296 7.93333 76.7229 7.92667 76.8763 7.92ZM84.6152 9.74V13.92C84.6152 14.22 84.6685 14.4433 84.7752 14.59C84.8885 14.73 85.0885 14.8 85.3752 14.8V15.01C85.1685 14.99 84.9618 14.98 84.7552 14.98C84.5618 14.98 84.3752 14.99 84.1952 15.01C84.0218 15.03 83.8618 15.0667 83.7152 15.12V13.94C83.5485 14.3733 83.3118 14.6833 83.0052 14.87C82.7052 15.05 82.3952 15.14 82.0752 15.14C81.8418 15.14 81.6385 15.1067 81.4652 15.04C81.2918 14.9733 81.1485 14.88 81.0352 14.76C80.9085 14.6267 80.8218 14.4533 80.7752 14.24C80.7285 14.0267 80.7052 13.7633 80.7052 13.45V10.94C80.7052 10.64 80.6518 10.42 80.5452 10.28C80.4385 10.1333 80.2385 10.06 79.9452 10.06V9.85C80.1585 9.87 80.3652 9.88 80.5652 9.88C80.7585 9.88 80.9418 9.87 81.1152 9.85C81.2952 9.82333 81.4585 9.78667 81.6052 9.74V13.67C81.6052 13.8767 81.6185 14.0667 81.6452 14.24C81.6718 14.4133 81.7385 14.5533 81.8452 14.66C81.9518 14.7667 82.1252 14.82 82.3652 14.82C82.6252 14.82 82.8552 14.74 83.0552 14.58C83.2618 14.42 83.4218 14.2033 83.5352 13.93C83.6552 13.6567 83.7152 13.35 83.7152 13.01V10.94C83.7152 10.64 83.6618 10.42 83.5552 10.28C83.4485 10.1333 83.2485 10.06 82.9552 10.06V9.85C83.1685 9.87 83.3752 9.88 83.5752 9.88C83.7685 9.88 83.9518 9.87 84.1252 9.85C84.3052 9.82333 84.4685 9.78667 84.6152 9.74ZM87.7157 9.85V10.06C87.589 10.06 87.4824 10.09 87.3957 10.15C87.309 10.21 87.299 10.2933 87.3657 10.4L90.0357 14.29C90.149 14.4567 90.249 14.5767 90.3357 14.65C90.4224 14.7167 90.529 14.7633 90.6557 14.79V15C90.589 14.9933 90.4857 14.9867 90.3457 14.98C90.2124 14.9667 90.079 14.96 89.9457 14.96C89.739 14.96 89.5157 14.9667 89.2757 14.98C89.0424 14.9867 88.8724 14.9933 88.7657 15V14.79C88.899 14.79 89.009 14.76 89.0957 14.7C89.1824 14.6333 89.189 14.55 89.1157 14.45L86.4457 10.56C86.3124 10.3667 86.2057 10.24 86.1257 10.18C86.0457 10.1133 85.9457 10.0733 85.8257 10.06V9.85C85.8924 9.85667 85.9957 9.86667 86.1357 9.88C86.2757 9.88667 86.409 9.89 86.5357 9.89C86.749 9.89 86.9724 9.88667 87.2057 9.88C87.439 9.86667 87.609 9.85667 87.7157 9.85ZM87.9857 12.39C87.9857 12.39 87.9924 12.4133 88.0057 12.46C88.019 12.5 88.0324 12.5433 88.0457 12.59C88.0657 12.6367 88.0757 12.66 88.0757 12.66L87.2457 13.74C87.0724 13.9667 86.979 14.1567 86.9657 14.31C86.959 14.4633 87.0224 14.58 87.1557 14.66C87.289 14.7333 87.4724 14.78 87.7057 14.8V15C87.5924 14.9933 87.4657 14.99 87.3257 14.99C87.1857 14.9833 87.049 14.98 86.9157 14.98C86.789 14.9733 86.6724 14.97 86.5657 14.97C86.4124 14.97 86.2724 14.9733 86.1457 14.98C86.0257 14.98 85.9124 14.9867 85.8057 15V14.8C85.9324 14.7867 86.0624 14.73 86.1957 14.63C86.3357 14.5233 86.499 14.3467 86.6857 14.1L87.9857 12.39ZM90.4557 9.85V10.05C90.329 10.0633 90.189 10.13 90.0357 10.25C89.889 10.3633 89.7357 10.53 89.5757 10.75L88.4257 12.34C88.4257 12.34 88.419 12.32 88.4057 12.28C88.3924 12.2333 88.379 12.19 88.3657 12.15C88.3524 12.1033 88.3457 12.08 88.3457 12.08L89.1257 10.99C89.2724 10.7833 89.3657 10.6133 89.4057 10.48C89.4457 10.3467 89.4224 10.2467 89.3357 10.18C89.2557 10.1067 89.0957 10.0633 88.8557 10.05V9.85C89.029 9.85667 89.1724 9.86333 89.2857 9.87C89.4057 9.87667 89.5424 9.88 89.6957 9.88C89.849 9.88 89.9857 9.87667 90.1057 9.87C90.2324 9.86333 90.349 9.85667 90.4557 9.85ZM93.3552 9.71C93.7819 9.71 94.1652 9.80333 94.5052 9.99C94.8452 10.1767 95.1152 10.47 95.3152 10.87C95.5219 11.27 95.6252 11.79 95.6252 12.43C95.6252 13.07 95.5219 13.59 95.3152 13.99C95.1152 14.3833 94.8452 14.6733 94.5052 14.86C94.1652 15.0467 93.7819 15.14 93.3552 15.14C92.9352 15.14 92.5519 15.0467 92.2052 14.86C91.8652 14.6733 91.5919 14.3833 91.3852 13.99C91.1852 13.59 91.0852 13.07 91.0852 12.43C91.0852 11.79 91.1852 11.27 91.3852 10.87C91.5919 10.47 91.8652 10.1767 92.2052 9.99C92.5519 9.80333 92.9352 9.71 93.3552 9.71ZM93.3552 9.91C92.9752 9.91 92.6619 10.1067 92.4152 10.5C92.1752 10.8933 92.0552 11.5367 92.0552 12.43C92.0552 13.3233 92.1752 13.9667 92.4152 14.36C92.6619 14.7467 92.9752 14.94 93.3552 14.94C93.7352 14.94 94.0452 14.7467 94.2852 14.36C94.5319 13.9667 94.6552 13.3233 94.6552 12.43C94.6552 11.5367 94.5319 10.8933 94.2852 10.5C94.0452 10.1067 93.7352 9.91 93.3552 9.91Z" fill="black"/>
<defs>
<filter id="filter0_d_49_41" x="0" y="0" width="169" height="30" filterUnits="userSpaceOnUse" color-interpolation-filters="sRGB">
<feFlood flood-opacity="0" result="BackgroundImageFix"/>
<feColorMatrix in="SourceAlpha" type="matrix" values="0 0 0 0 0 0 0 0 0 0 0 0 0 0 0 0 0 0 127 0" result="hardAlpha"/>
<feOffset dy="4"/>
<feGaussianBlur stdDeviation="2"/>
<feComposite in2="hardAlpha" operator="out"/>
<feColorMatrix type="matrix" values="0 0 0 0 0 0 0 0 0 0 0 0 0 0 0 0 0 0 0.25 0"/>
<feBlend mode="normal" in2="BackgroundImageFix" result="effect1_dropShadow_49_41"/>
<feBlend mode="normal" in="SourceGraphic" in2="effect1_dropShadow_49_41" result="shape"/>
</filter>
</defs>
</svg>
