<svg width="30" height="129" viewBox="0 0 30 129" fill="none" xmlns="http://www.w3.org/2000/svg">
<g filter="url(#filter0_d_49_42)">
<rect x="4" y="121" width="121" height="22" rx="11" transform="rotate(-90 4 121)" fill="white"/>
</g>
<path d="M10.92 68.2267C11.1533 68.2534 11.38 68.2734 11.6 68.2867C11.82 68.2934 11.9867 68.2967 12.1 68.2967C12.22 68.2967 12.3367 68.2934 12.45 68.2867C12.5567 68.2801 12.6467 68.2734 12.72 68.2667V68.4967C12.3267 68.5367 12.0167 68.5934 11.79 68.6667C11.5567 68.7401 11.3933 68.8667 11.3 69.0467C11.2 69.2201 11.15 69.4834 11.15 69.8367V70.6667C11.15 70.8934 11.17 71.0667 11.21 71.1867C11.2433 71.3001 11.32 71.3767 11.44 71.4167C11.5533 71.4567 11.7333 71.4767 11.98 71.4767H16.94C17.18 71.4767 17.36 71.4567 17.48 71.4167C17.6 71.3767 17.68 71.3001 17.72 71.1867C17.7533 71.0667 17.77 70.8934 17.77 70.6667V69.9367C17.77 69.5167 17.7133 69.2001 17.6 68.9867C17.4867 68.7667 17.3033 68.6101 17.05 68.5167C16.79 68.4167 16.44 68.3434 16 68.2967V68.0667C16.18 68.0867 16.42 68.0967 16.72 68.0967C16.8467 68.0967 17.03 68.0934 17.27 68.0867C17.5033 68.0734 17.7467 68.0534 18 68.0267C17.9867 68.3667 17.98 68.7501 17.98 69.1767C17.9733 69.6034 17.97 69.9834 17.97 70.3167C17.97 70.4634 17.97 70.6534 17.97 70.8867C17.97 71.1134 17.9733 71.3601 17.98 71.6267C17.98 71.8934 17.9833 72.1634 17.99 72.4367C17.99 72.7101 17.9933 72.9701 18 73.2167H17.8C17.7867 72.9901 17.76 72.8201 17.72 72.7067C17.68 72.5867 17.6 72.5067 17.48 72.4667C17.36 72.4267 17.18 72.4067 16.94 72.4067H11.98C11.7333 72.4067 11.5533 72.4267 11.44 72.4667C11.32 72.5067 11.24 72.5867 11.2 72.7067C11.1533 72.8201 11.1267 72.9901 11.12 73.2167H10.92C10.9267 72.9701 10.9333 72.7101 10.94 72.4367C10.94 72.1634 10.9433 71.8934 10.95 71.6267C10.95 71.3601 10.95 71.1134 10.95 70.8867C10.95 70.6534 10.95 70.4634 10.95 70.3167C10.95 70.0101 10.95 69.6634 10.95 69.2767C10.9433 68.8834 10.9333 68.5334 10.92 68.2267ZM14.34 69.9467C14.34 69.9467 14.3733 69.9467 14.44 69.9467C14.5067 69.9467 14.54 69.9467 14.54 69.9467V71.7767C14.54 71.7767 14.5067 71.7767 14.44 71.7767C14.3733 71.7767 14.34 71.7767 14.34 71.7767V69.9467ZM13.02 69.6567C13.4 69.6834 13.69 69.6967 13.89 69.6967C14.09 69.6901 14.2733 69.6867 14.44 69.6867C14.6067 69.6867 14.79 69.6834 14.99 69.6767C15.19 69.6701 15.48 69.6534 15.86 69.6267V69.8567C15.6467 69.8834 15.44 69.9167 15.24 69.9567C15.0333 69.9901 14.8667 70.0701 14.74 70.1967C14.6067 70.3167 14.54 70.5234 14.54 70.8167H14.34C14.34 70.5967 14.2967 70.4301 14.21 70.3167C14.1167 70.1967 14 70.1101 13.86 70.0567C13.72 70.0034 13.5767 69.9667 13.43 69.9467C13.2767 69.9267 13.14 69.9067 13.02 69.8867V69.6567ZM12.71 65.463C12.71 65.1963 12.7533 64.9696 12.84 64.783C12.9267 64.5963 13.0067 64.4596 13.08 64.373C13.26 64.153 13.14 64.0196 12.72 63.973V63.743C12.9067 63.7563 13.13 63.7663 13.39 63.773C13.6433 63.7796 13.9867 63.783 14.42 63.783V64.013C14.1733 64.053 13.9333 64.123 13.7 64.223C13.4667 64.3163 13.2767 64.4563 13.13 64.643C12.9767 64.8296 12.9 65.073 12.9 65.373C12.9 65.6063 12.9667 65.803 13.1 65.963C13.2267 66.1163 13.4167 66.193 13.67 66.193C13.87 66.193 14.0433 66.133 14.19 66.013C14.33 65.893 14.4633 65.7363 14.59 65.543C14.71 65.3496 14.8433 65.1396 14.99 64.913C15.15 64.6596 15.3133 64.4296 15.48 64.223C15.6467 64.0163 15.83 63.853 16.03 63.733C16.23 63.6063 16.4667 63.543 16.74 63.543C17.0467 63.543 17.3033 63.623 17.51 63.783C17.7167 63.943 17.8733 64.153 17.98 64.413C18.0867 64.6663 18.14 64.9463 18.14 65.253C18.14 65.3996 18.1267 65.5396 18.1 65.673C18.08 65.7996 18.0467 65.923 18 66.043C17.9667 66.1096 17.9267 66.1796 17.88 66.253C17.8333 66.3196 17.7833 66.3863 17.73 66.453C17.6767 66.5196 17.68 66.5796 17.74 66.633C17.7933 66.6863 17.9033 66.7263 18.07 66.753V66.983C17.8567 66.9696 17.5967 66.9596 17.29 66.953C16.9833 66.9463 16.5767 66.943 16.07 66.943V66.713C16.4433 66.6663 16.77 66.5996 17.05 66.513C17.33 66.4263 17.55 66.2896 17.71 66.103C17.8633 65.9163 17.94 65.6563 17.94 65.323C17.94 65.1896 17.91 65.0563 17.85 64.923C17.79 64.783 17.69 64.6663 17.55 64.573C17.41 64.4796 17.2233 64.433 16.99 64.433C16.6967 64.433 16.4567 64.5396 16.27 64.753C16.0833 64.9663 15.8867 65.2363 15.68 65.563C15.5267 65.803 15.3733 66.0296 15.22 66.243C15.0667 66.4496 14.8933 66.6196 14.7 66.753C14.5067 66.8796 14.2733 66.943 14 66.943C13.7 66.943 13.4567 66.8763 13.27 66.743C13.0767 66.603 12.9367 66.4196 12.85 66.193C12.7567 65.9663 12.71 65.723 12.71 65.463ZM11.19 61.1703H12.86V59.6903H13.06V61.1703H16.93C17.2433 61.1703 17.4633 61.1136 17.59 61.0003C17.7167 60.887 17.78 60.7303 17.78 60.5303C17.78 60.3303 17.7 60.157 17.54 60.0103C17.3733 59.8636 17.0967 59.737 16.71 59.6303L16.76 59.4303C17.1467 59.497 17.4733 59.6303 17.74 59.8303C18.0067 60.0236 18.14 60.3236 18.14 60.7303C18.14 60.957 18.11 61.1436 18.05 61.2903C17.9967 61.437 17.9167 61.567 17.81 61.6803C17.6567 61.827 17.4733 61.9303 17.26 61.9903C17.0467 62.0436 16.7633 62.0703 16.41 62.0703H13.06V63.0303H12.86V62.0703H11.33C11.3233 61.9036 11.31 61.7436 11.29 61.5903C11.27 61.437 11.2367 61.297 11.19 61.1703ZM10.35 58.1052C10.35 57.9318 10.4133 57.7818 10.54 57.6552C10.6667 57.5285 10.8167 57.4652 10.99 57.4652C11.1633 57.4652 11.3133 57.5285 11.44 57.6552C11.5667 57.7818 11.63 57.9318 11.63 58.1052C11.63 58.2785 11.5667 58.4285 11.44 58.5552C11.3133 58.6818 11.1633 58.7452 10.99 58.7452C10.8167 58.7452 10.6667 58.6818 10.54 58.5552C10.4133 58.4285 10.35 58.2785 10.35 58.1052ZM12.74 57.5852H17.07C17.35 57.5852 17.54 57.5285 17.64 57.4152C17.74 57.2952 17.79 57.0985 17.79 56.8252H18C17.9933 56.9385 17.9867 57.1118 17.98 57.3452C17.9667 57.5718 17.96 57.8018 17.96 58.0352C17.96 58.2618 17.9667 58.4918 17.98 58.7252C17.9867 58.9585 17.9933 59.1318 18 59.2452H17.79C17.79 58.9718 17.74 58.7785 17.64 58.6652C17.54 58.5452 17.35 58.4852 17.07 58.4852H13.94C13.64 58.4852 13.42 58.5385 13.28 58.6452C13.1333 58.7518 13.06 58.9518 13.06 59.2452H12.85C12.87 59.0318 12.88 58.8252 12.88 58.6252C12.88 58.4318 12.87 58.2485 12.85 58.0752C12.8233 57.8952 12.7867 57.7318 12.74 57.5852ZM10.16 54.7255H17.07C17.35 54.7255 17.54 54.6688 17.64 54.5555C17.74 54.4355 17.79 54.2388 17.79 53.9655H18C17.9933 54.0788 17.9867 54.2521 17.98 54.4855C17.9667 54.7121 17.96 54.9421 17.96 55.1755C17.96 55.4021 17.9667 55.6321 17.98 55.8655C17.9867 56.0988 17.9933 56.2721 18 56.3855H17.79C17.79 56.1121 17.74 55.9188 17.64 55.8055C17.54 55.6855 17.35 55.6255 17.07 55.6255H11.36C11.06 55.6255 10.84 55.6788 10.7 55.7855C10.5533 55.8921 10.48 56.0921 10.48 56.3855H10.27C10.29 56.1721 10.3 55.9655 10.3 55.7655C10.3 55.5721 10.29 55.3888 10.27 55.2155C10.2433 55.0355 10.2067 54.8721 10.16 54.7255ZM12.71 51.1018C12.71 50.6751 12.8033 50.2918 12.99 49.9518C13.1767 49.6118 13.47 49.3418 13.87 49.1418C14.27 48.9351 14.79 48.8318 15.43 48.8318C16.07 48.8318 16.59 48.9351 16.99 49.1418C17.3833 49.3418 17.6733 49.6118 17.86 49.9518C18.0467 50.2918 18.14 50.6751 18.14 51.1018C18.14 51.5218 18.0467 51.9051 17.86 52.2518C17.6733 52.5918 17.3833 52.8651 16.99 53.0718C16.59 53.2718 16.07 53.3718 15.43 53.3718C14.79 53.3718 14.27 53.2718 13.87 53.0718C13.47 52.8651 13.1767 52.5918 12.99 52.2518C12.8033 51.9051 12.71 51.5218 12.71 51.1018ZM12.91 51.1018C12.91 51.4818 13.1067 51.7951 13.5 52.0418C13.8933 52.2818 14.5367 52.4018 15.43 52.4018C16.3233 52.4018 16.9667 52.2818 17.36 52.0418C17.7467 51.7951 17.94 51.4818 17.94 51.1018C17.94 50.7218 17.7467 50.4118 17.36 50.1718C16.9667 49.9251 16.3233 49.8018 15.43 49.8018C14.5367 49.8018 13.8933 49.9251 13.5 50.1718C13.1067 50.4118 12.91 50.7218 12.91 51.1018Z" fill="black"/>
<defs>
<filter id="filter0_d_49_42" x="0" y="0" width="30" height="129" filterUnits="userSpaceOnUse" color-interpolation-filters="sRGB">
<feFlood flood-opacity="0" result="BackgroundImageFix"/>
<feColorMatrix in="SourceAlpha" type="matrix" values="0 0 0 0 0 0 0 0 0 0 0 0 0 0 0 0 0 0 127 0" result="hardAlpha"/>
<feOffset dy="4"/>
<feGaussianBlur stdDeviation="2"/>
<feComposite in2="hardAlpha" operator="out"/>
<feColorMatrix type="matrix" values="0 0 0 0 0 0 0 0 0 0 0 0 0 0 0 0 0 0 0.25 0"/>
<feBlend mode="normal" in2="BackgroundImageFix" result="effect1_dropShadow_49_42"/>
<feBlend mode="normal" in="SourceGraphic" in2="effect1_dropShadow_49_42" result="shape"/>
</filter>
</defs>
</svg>
